<svg width="257" height="20" viewBox="0 0 257 20" fill="none" xmlns="http://www.w3.org/2000/svg">
<path d="M12.216 10.688C12.856 10.688 13.312 10.752 13.584 10.88C13.872 10.992 14.016 11.208 14.016 11.528C14.016 11.96 13.32 12.4 11.928 12.848C11.96 14.064 11.976 15.232 11.976 16.352C11.976 17.456 11.888 18.288 11.712 18.848C11.536 19.392 11.256 19.664 10.872 19.664C10.488 19.664 10.184 19.472 9.96 19.088C9.752 18.688 9.576 18.04 9.432 17.144C9.304 16.248 9.168 15.064 9.024 13.592C7.392 13.96 6.216 14.256 5.496 14.48C4.248 17.936 3.416 19.664 3 19.664C2.664 19.664 2.216 19.44 1.656 18.992C1.112 18.544 0.84 18.08 0.84 17.6C0.84 17.328 1.152 16.48 1.776 15.056C1.504 14.88 1.264 14.632 1.056 14.312C0.864 13.976 0.768 13.656 0.768 13.352C0.768 12.824 1.56 12.32 3.144 11.84C3.272 11.52 3.4 11.16 3.528 10.76C3.672 10.344 4.016 9.384 4.56 7.88C5.12 6.376 5.56 5.12 5.88 4.112C6.024 3.632 6.52 3.184 7.368 2.768C8.232 2.352 8.904 2.144 9.384 2.144C9.944 2.144 10.44 2.92 10.872 4.472C11.32 6.024 11.632 8.096 11.808 10.688H12.216ZM6.672 11.096C7.152 11.032 7.848 10.952 8.76 10.856C8.712 10.392 8.632 9.6 8.52 8.48C8.424 7.36 8.352 6.552 8.304 6.056C8.032 6.952 7.488 8.632 6.672 11.096ZM19.1012 0.607999C19.4852 0.607999 19.9812 0.959999 20.5892 1.664C21.1972 2.368 21.5012 3.04 21.5012 3.68C21.5012 4.32 21.4052 5.464 21.2132 7.112C21.0212 8.744 20.8212 10.048 20.6132 11.024C19.2852 16.816 18.3572 19.712 17.8292 19.712C17.4772 19.712 17.0372 19.432 16.5092 18.872C15.9972 18.296 15.7412 17.824 15.7412 17.456C15.7412 17.424 15.9572 16.592 16.3892 14.96C16.8212 13.328 17.2532 11.232 17.6852 8.672C18.1332 6.096 18.3572 3.64 18.3572 1.304C18.3572 0.839999 18.6052 0.607999 19.1012 0.607999ZM32.8442 11.816C32.8442 12.6 32.3082 13.304 31.2362 13.928C30.1802 14.552 29.0922 14.864 27.9722 14.864C26.8522 14.864 25.9322 14.784 25.2122 14.624C25.0682 15.056 24.9962 15.488 24.9962 15.92C24.9962 16.352 25.0682 16.664 25.2122 16.856C25.3562 17.032 25.7162 17.12 26.2922 17.12C27.4922 17.12 28.5162 17.008 29.3642 16.784C30.2282 16.56 30.6762 16.448 30.7082 16.448C31.3642 16.448 31.6922 16.664 31.6922 17.096C31.6922 17.72 31.1722 18.312 30.1322 18.872C29.1082 19.432 27.9162 19.712 26.5562 19.712C25.2122 19.712 24.1322 19.288 23.3162 18.44C22.5002 17.592 22.0922 16.592 22.0922 15.44C22.0922 14.272 22.4282 13.056 23.1002 11.792C23.7882 10.528 24.6442 9.472 25.6682 8.624C26.6922 7.76 27.7082 7.328 28.7162 7.328C29.7402 7.328 30.6842 7.832 31.5482 8.84C32.4122 9.832 32.8442 10.824 32.8442 11.816ZM30.0602 11.432C30.0602 11.272 29.8922 11.04 29.5562 10.736C29.2202 10.432 28.9002 10.28 28.5962 10.28C28.3082 10.28 27.9322 10.496 27.4682 10.928C27.0042 11.344 26.5642 11.888 26.1482 12.56C26.2922 12.576 26.5002 12.584 26.7722 12.584C28.9642 12.584 30.0602 12.2 30.0602 11.432ZM36.0429 19.712C35.6749 19.712 35.2109 19.416 34.6509 18.824C34.1069 18.232 33.8349 17.76 33.8349 17.408C33.8349 17.312 34.0989 16.36 34.6269 14.552C35.1709 12.744 35.7069 10.568 36.2349 8.024C36.7789 5.48 37.0509 3.256 37.0509 1.352C37.0509 0.855999 37.2749 0.607999 37.7229 0.607999C38.1069 0.607999 38.6109 0.959999 39.2349 1.664C39.8749 2.352 40.1949 3 40.1949 3.608C40.1949 4.488 39.8749 6.152 39.2349 8.6C38.6109 11.048 37.9869 12.976 37.3629 14.384C37.5709 14.112 37.8509 13.752 38.2029 13.304C38.5709 12.84 38.8669 12.464 39.0909 12.176C39.3149 11.888 39.5869 11.536 39.9069 11.12C40.2429 10.704 40.5229 10.368 40.7469 10.112C40.9709 9.84 41.2189 9.544 41.4909 9.224C41.7629 8.888 41.9949 8.624 42.1869 8.432C42.3949 8.224 42.6029 8.032 42.8109 7.856C43.1949 7.504 43.4909 7.328 43.6989 7.328C44.0989 7.328 44.5389 7.6 45.0189 8.144C45.4989 8.672 45.7389 9.136 45.7389 9.536C45.7389 9.696 45.3949 10.064 44.7069 10.64C44.0349 11.216 43.3549 11.856 42.6669 12.56C41.9949 13.264 41.6589 13.896 41.6589 14.456C41.6589 15 41.8189 15.536 42.1389 16.064C42.4749 16.576 42.8349 16.968 43.2189 17.24C43.6029 17.512 43.9549 17.792 44.2749 18.08C44.6109 18.352 44.7789 18.584 44.7789 18.776C44.7789 19.4 44.3549 19.712 43.5069 19.712C42.4989 19.712 41.1629 18.864 39.4989 17.168L38.9229 16.592C37.4829 18.672 36.5229 19.712 36.0429 19.712ZM53.3029 7.352C53.9109 7.352 54.5109 7.712 55.1029 8.432C55.6949 9.152 55.9909 9.8 55.9909 10.376C55.9909 10.76 55.8229 10.952 55.4869 10.952C55.2949 10.952 55.0149 10.88 54.6469 10.736C54.2789 10.576 53.9029 10.496 53.5189 10.496C53.1509 10.496 52.5989 10.624 51.8629 10.88C51.1429 11.136 50.7829 11.472 50.7829 11.888C50.7829 12.048 50.9989 12.28 51.4309 12.584C51.8629 12.888 52.3349 13.2 52.8469 13.52C53.3589 13.84 53.8309 14.288 54.2629 14.864C54.6949 15.424 54.9109 16.04 54.9109 16.712C54.9109 17.368 54.4229 18.032 53.4469 18.704C52.4869 19.376 51.3509 19.712 50.0389 19.712C48.7429 19.712 47.6309 19.416 46.7029 18.824C45.7749 18.232 45.3109 17.624 45.3109 17C45.3109 16.376 45.5669 16.064 46.0789 16.064C46.2869 16.064 46.5349 16.144 46.8229 16.304C47.6229 16.768 48.6149 17 49.7989 17C50.9989 17 51.5989 16.84 51.5989 16.52C51.5989 16.2 51.3669 15.848 50.9029 15.464C50.4549 15.064 49.9589 14.696 49.4149 14.36C48.8869 14.024 48.3909 13.616 47.9269 13.136C47.4789 12.64 47.2549 12.16 47.2549 11.696C47.2549 10.832 48.0389 9.896 49.6069 8.888C51.1749 7.864 52.4069 7.352 53.3029 7.352ZM67.05 12.896C67.338 13.152 67.482 13.384 67.482 13.592C67.482 13.8 67.386 14.232 67.194 14.888C67.002 15.544 66.874 16.056 66.81 16.424C66.746 16.776 66.69 17.056 66.642 17.264C66.61 17.472 66.586 17.64 66.57 17.768C66.554 17.88 66.522 18.024 66.474 18.2C66.442 18.376 66.41 18.52 66.378 18.632C66.362 18.728 66.33 18.848 66.282 18.992C66.25 19.12 66.21 19.224 66.162 19.304C66.114 19.368 66.058 19.44 65.994 19.52C65.898 19.648 65.738 19.712 65.514 19.712C65.29 19.712 65.01 19.488 64.674 19.04C64.354 18.592 64.114 18.048 63.954 17.408C62.45 18.944 61.186 19.712 60.162 19.712C59.474 19.712 58.73 19.336 57.93 18.584C57.13 17.816 56.73 17.056 56.73 16.304C56.73 15.536 57.074 14.448 57.762 13.04C58.45 11.632 59.386 10.328 60.57 9.128C61.77 7.928 62.954 7.328 64.122 7.328C64.794 7.328 65.57 7.72 66.45 8.504C67.33 9.288 67.77 10.008 67.77 10.664C67.77 11.304 67.53 12.048 67.05 12.896ZM60.066 16.688C60.706 16.688 61.554 16.256 62.61 15.392C63.682 14.512 64.346 13.408 64.602 12.08C64.618 11.888 64.754 11.776 65.01 11.744C64.962 10.832 64.81 10.376 64.554 10.376C63.914 10.376 63.194 10.792 62.394 11.624C61.61 12.456 60.962 13.344 60.45 14.288C59.954 15.232 59.706 15.928 59.706 16.376C59.706 16.504 59.722 16.592 59.754 16.64C59.802 16.672 59.906 16.688 60.066 16.688ZM77.9164 7.328C78.7484 7.328 79.4764 7.704 80.1004 8.456C80.7404 9.192 81.0604 9.984 81.0604 10.832C81.0604 12.192 80.8364 13.616 80.3884 15.104C79.9564 16.576 79.4764 17.712 78.9484 18.512C78.4364 19.312 77.9084 19.712 77.3644 19.712C76.8364 19.712 76.5724 19.336 76.5724 18.584C76.5724 18.008 76.8364 16.848 77.3644 15.104C77.7644 13.664 77.9644 12.632 77.9644 12.008C77.9644 11.384 77.8844 11.072 77.7244 11.072C77.5164 11.072 77.3084 11.176 77.1004 11.384C76.9084 11.592 76.7484 11.776 76.6204 11.936C76.4924 12.096 76.3404 12.304 76.1644 12.56C76.0044 12.8 75.8604 13.024 75.7324 13.232C75.6204 13.424 75.4684 13.68 75.2764 14C75.1004 14.304 74.9564 14.56 74.8444 14.768C74.7324 14.96 74.5884 15.216 74.4124 15.536C72.9244 18.32 71.7564 19.712 70.9084 19.712C70.5724 19.712 70.1484 19.424 69.6364 18.848C69.1244 18.256 68.8684 17.824 68.8684 17.552C68.8684 17.376 68.9804 17 69.2044 16.424C69.4444 15.832 69.6124 15.384 69.7084 15.08C69.8204 14.76 69.9084 14.424 69.9724 14.072C70.0524 13.72 70.1164 13.344 70.1644 12.944C70.2124 12.528 70.2444 12.208 70.2604 11.984C70.2924 11.76 70.3244 11.408 70.3564 10.928C70.5004 8.848 70.6204 7.696 70.7164 7.472C70.8284 7.248 70.9484 7.136 71.0764 7.136C71.6844 7.136 72.2684 7.392 72.8284 7.904C73.3884 8.4 73.6684 8.856 73.6684 9.272C73.6684 10.264 73.4124 11.688 72.9004 13.544C73.9404 11.72 74.8844 10.232 75.7324 9.08C76.5964 7.912 77.3244 7.328 77.9164 7.328ZM92.6214 0.607999C93.0054 0.607999 93.5094 0.959999 94.1334 1.664C94.7574 2.352 95.0694 3 95.0694 3.608C95.0694 3.912 94.7894 5.176 94.2294 7.4C93.6694 9.624 93.3334 10.968 93.2214 11.432C91.9414 16.952 91.0054 19.712 90.4134 19.712C90.0774 19.712 89.7014 19.512 89.2854 19.112C88.8694 18.712 88.6614 18.32 88.6614 17.936C88.6614 17.856 88.6694 17.792 88.6854 17.744C87.0854 19.056 85.9334 19.712 85.2294 19.712C84.5414 19.712 83.8694 19.344 83.2134 18.608C82.5734 17.856 82.2534 17.176 82.2534 16.568C82.2534 15.96 82.3334 15.288 82.4934 14.552C82.6694 13.8 82.9334 13.008 83.2854 12.176C83.6374 11.344 84.0374 10.568 84.4854 9.848C84.9494 9.112 85.5014 8.512 86.1414 8.048C86.7974 7.568 87.4694 7.328 88.1574 7.328C89.1814 7.328 90.0214 7.848 90.6774 8.888C91.5414 5.096 91.9574 2.576 91.9254 1.328C91.9254 0.847999 92.1574 0.607999 92.6214 0.607999ZM85.5414 16.664C85.9414 16.664 86.6134 16.32 87.5574 15.632C88.5174 14.944 89.2294 14.072 89.6934 13.016C89.6774 12.888 89.6694 12.608 89.6694 12.176C89.6694 11.744 89.5254 11.336 89.2374 10.952C88.9494 10.568 88.6854 10.376 88.4454 10.376C87.9654 10.376 87.5014 10.632 87.0534 11.144C86.6214 11.656 86.2774 12.264 86.0214 12.968C85.4774 14.456 85.2054 15.584 85.2054 16.352C85.2054 16.48 85.2214 16.568 85.2534 16.616C85.3014 16.648 85.3974 16.664 85.5414 16.664ZM96.6309 11.384L96.4869 8.672C96.4869 7.776 96.7669 7.328 97.3269 7.328C97.6469 7.328 97.9589 7.448 98.2629 7.688C98.5829 7.928 98.8229 8.304 98.9829 8.816C99.5269 8.336 100.119 7.952 100.759 7.664C101.415 7.36 101.991 7.208 102.487 7.208C103.655 7.208 104.239 7.488 104.239 8.048C104.239 8.336 104.183 8.552 104.071 8.696C103.975 8.824 103.895 8.92 103.831 8.984C103.783 9.048 103.687 9.136 103.543 9.248C103.415 9.344 103.319 9.416 103.255 9.464C102.887 9.704 102.623 9.872 102.463 9.968C101.743 10.416 101.127 10.96 100.615 11.6C100.103 12.224 99.7189 13.096 99.4629 14.216C99.0309 16.056 98.6069 17.432 98.1909 18.344C97.7909 19.24 97.3349 19.688 96.8229 19.688C96.3269 19.688 95.9509 19.448 95.6949 18.968C95.4549 18.488 95.3349 18.04 95.3349 17.624C95.3349 17.192 95.4869 16.552 95.7909 15.704C96.1109 14.856 96.3269 14.128 96.4389 13.52C96.5669 12.896 96.6309 12.184 96.6309 11.384ZM125.217 2C125.681 2 126.193 2.24 126.753 2.72C127.329 3.2 127.617 3.592 127.617 3.896C127.617 4.904 127.377 6.656 126.897 9.152C126.433 11.632 125.833 14.008 125.097 16.28C124.361 18.552 123.697 19.688 123.105 19.688C122.865 19.688 122.553 19.56 122.169 19.304C121.785 19.032 121.529 18.72 121.401 18.368C121.273 18 121.025 17.248 120.657 16.112C119.809 13.504 119.009 11.344 118.257 9.632C118.145 10.112 117.993 10.792 117.801 11.672C117.625 12.552 117.481 13.248 117.369 13.76C117.257 14.256 117.121 14.864 116.961 15.584C116.801 16.288 116.657 16.848 116.529 17.264C116.417 17.68 116.289 18.096 116.145 18.512C115.889 19.296 115.649 19.688 115.425 19.688C115.105 19.688 114.689 19.4 114.177 18.824C113.665 18.232 113.409 17.728 113.409 17.312C113.409 16.88 113.865 14.648 114.777 10.616C115.705 6.584 116.209 4.056 116.289 3.032C116.337 2.424 116.521 2.12 116.841 2.12C117.113 2.12 117.457 2.28 117.873 2.6C118.305 2.92 118.673 3.312 118.977 3.776C119.297 4.224 119.865 5.704 120.681 8.216C121.497 10.728 122.145 12.528 122.625 13.616C123.249 11.76 123.825 8.96 124.353 5.216C124.561 3.728 124.697 2.824 124.761 2.504C124.825 2.168 124.977 2 125.217 2ZM139.133 11.816C139.133 12.6 138.597 13.304 137.525 13.928C136.469 14.552 135.381 14.864 134.261 14.864C133.141 14.864 132.221 14.784 131.501 14.624C131.357 15.056 131.285 15.488 131.285 15.92C131.285 16.352 131.357 16.664 131.501 16.856C131.645 17.032 132.005 17.12 132.581 17.12C133.781 17.12 134.805 17.008 135.653 16.784C136.517 16.56 136.965 16.448 136.997 16.448C137.653 16.448 137.981 16.664 137.981 17.096C137.981 17.72 137.461 18.312 136.421 18.872C135.397 19.432 134.205 19.712 132.845 19.712C131.501 19.712 130.421 19.288 129.605 18.44C128.789 17.592 128.381 16.592 128.381 15.44C128.381 14.272 128.717 13.056 129.389 11.792C130.077 10.528 130.933 9.472 131.957 8.624C132.981 7.76 133.997 7.328 135.005 7.328C136.029 7.328 136.973 7.832 137.837 8.84C138.701 9.832 139.133 10.824 139.133 11.816ZM136.349 11.432C136.349 11.272 136.181 11.04 135.845 10.736C135.509 10.432 135.189 10.28 134.885 10.28C134.597 10.28 134.221 10.496 133.757 10.928C133.293 11.344 132.853 11.888 132.437 12.56C132.581 12.576 132.789 12.584 133.061 12.584C135.253 12.584 136.349 12.2 136.349 11.432ZM147.756 7.352C148.364 7.352 148.964 7.712 149.556 8.432C150.148 9.152 150.444 9.8 150.444 10.376C150.444 10.76 150.276 10.952 149.94 10.952C149.748 10.952 149.468 10.88 149.1 10.736C148.732 10.576 148.356 10.496 147.972 10.496C147.604 10.496 147.052 10.624 146.316 10.88C145.596 11.136 145.236 11.472 145.236 11.888C145.236 12.048 145.452 12.28 145.884 12.584C146.316 12.888 146.788 13.2 147.3 13.52C147.812 13.84 148.284 14.288 148.716 14.864C149.148 15.424 149.364 16.04 149.364 16.712C149.364 17.368 148.876 18.032 147.9 18.704C146.94 19.376 145.804 19.712 144.492 19.712C143.196 19.712 142.084 19.416 141.156 18.824C140.228 18.232 139.764 17.624 139.764 17C139.764 16.376 140.02 16.064 140.532 16.064C140.74 16.064 140.988 16.144 141.276 16.304C142.076 16.768 143.068 17 144.252 17C145.452 17 146.052 16.84 146.052 16.52C146.052 16.2 145.82 15.848 145.356 15.464C144.908 15.064 144.412 14.696 143.868 14.36C143.34 14.024 142.844 13.616 142.38 13.136C141.932 12.64 141.708 12.16 141.708 11.696C141.708 10.832 142.492 9.896 144.06 8.888C145.628 7.864 146.86 7.352 147.756 7.352ZM154.303 1.616C154.303 0.943999 154.567 0.607999 155.095 0.607999C155.527 0.607999 156.023 0.967999 156.583 1.688C157.143 2.408 157.423 3.024 157.423 3.536C157.423 4.048 157.319 4.768 157.111 5.696C156.903 6.624 156.687 7.472 156.463 8.24C156.255 9.008 155.935 10.104 155.503 11.528C155.071 12.936 154.775 13.92 154.615 14.48C155.655 12.368 156.751 10.648 157.903 9.32C159.071 7.992 160.047 7.328 160.831 7.328C161.327 7.328 161.895 7.768 162.535 8.648C163.175 9.512 163.495 10.296 163.495 11C163.495 11.688 163.367 12.696 163.111 14.024C162.855 15.352 162.407 16.632 161.767 17.864C161.127 19.096 160.471 19.712 159.799 19.712C159.271 19.712 159.007 19.336 159.007 18.584C159.007 18.04 159.167 17.152 159.487 15.92C159.951 14.08 160.183 12.96 160.183 12.56C160.183 12.16 160.119 11.96 159.991 11.96C159.063 11.96 157.703 13.504 155.911 16.592C155.303 17.648 154.791 18.432 154.375 18.944C153.975 19.456 153.591 19.712 153.223 19.712C152.855 19.712 152.407 19.416 151.879 18.824C151.367 18.232 151.111 17.776 151.111 17.456C151.111 17.12 151.175 16.632 151.303 15.992C151.447 15.352 151.655 14.44 151.927 13.256C152.215 12.072 152.679 9.928 153.319 6.824C153.975 3.704 154.303 1.968 154.303 1.616ZM164.827 15.944C164.827 14.824 165.179 13.592 165.883 12.248C166.587 10.904 167.507 9.752 168.643 8.792C169.795 7.832 170.923 7.352 172.027 7.352C172.587 7.352 173.163 7.72 173.755 8.456C174.347 9.176 174.643 9.824 174.643 10.4C174.643 10.816 174.451 11.024 174.067 11.024C173.875 11.024 173.611 10.936 173.275 10.76C172.939 10.584 172.595 10.496 172.243 10.496C171.891 10.496 171.387 10.8 170.731 11.408C170.091 12 169.515 12.72 169.003 13.568C168.507 14.4 168.259 15.056 168.259 15.536C168.259 16.016 168.347 16.328 168.523 16.472C168.715 16.616 169.163 16.688 169.867 16.688C170.587 16.688 171.235 16.624 171.811 16.496C172.403 16.368 172.835 16.24 173.107 16.112C173.395 15.968 173.651 15.896 173.875 15.896C174.323 15.896 174.547 16.088 174.547 16.472C174.547 17.176 173.931 17.896 172.699 18.632C171.467 19.352 170.235 19.712 169.003 19.712C168.219 19.712 167.323 19.28 166.315 18.416C165.323 17.536 164.827 16.712 164.827 15.944ZM179.569 1.616C179.569 0.943999 179.833 0.607999 180.361 0.607999C180.793 0.607999 181.289 0.967999 181.849 1.688C182.409 2.408 182.689 3.024 182.689 3.536C182.689 4.048 182.585 4.768 182.377 5.696C182.169 6.624 181.953 7.472 181.729 8.24C181.521 9.008 181.201 10.104 180.769 11.528C180.337 12.936 180.041 13.92 179.881 14.48C180.921 12.368 182.017 10.648 183.169 9.32C184.337 7.992 185.313 7.328 186.097 7.328C186.593 7.328 187.161 7.768 187.801 8.648C188.441 9.512 188.761 10.296 188.761 11C188.761 11.688 188.633 12.696 188.377 14.024C188.121 15.352 187.673 16.632 187.033 17.864C186.393 19.096 185.737 19.712 185.065 19.712C184.537 19.712 184.273 19.336 184.273 18.584C184.273 18.04 184.433 17.152 184.753 15.92C185.217 14.08 185.449 12.96 185.449 12.56C185.449 12.16 185.385 11.96 185.257 11.96C184.329 11.96 182.969 13.504 181.177 16.592C180.569 17.648 180.057 18.432 179.641 18.944C179.241 19.456 178.857 19.712 178.489 19.712C178.121 19.712 177.673 19.416 177.145 18.824C176.633 18.232 176.377 17.776 176.377 17.456C176.377 17.12 176.441 16.632 176.569 15.992C176.713 15.352 176.921 14.44 177.193 13.256C177.481 12.072 177.945 9.928 178.585 6.824C179.241 3.704 179.569 1.968 179.569 1.616ZM200.844 11.816C200.844 12.6 200.308 13.304 199.236 13.928C198.18 14.552 197.092 14.864 195.972 14.864C194.852 14.864 193.932 14.784 193.212 14.624C193.068 15.056 192.996 15.488 192.996 15.92C192.996 16.352 193.068 16.664 193.212 16.856C193.356 17.032 193.716 17.12 194.292 17.12C195.492 17.12 196.516 17.008 197.364 16.784C198.228 16.56 198.676 16.448 198.708 16.448C199.364 16.448 199.692 16.664 199.692 17.096C199.692 17.72 199.172 18.312 198.132 18.872C197.108 19.432 195.916 19.712 194.556 19.712C193.212 19.712 192.132 19.288 191.316 18.44C190.5 17.592 190.092 16.592 190.092 15.44C190.092 14.272 190.428 13.056 191.1 11.792C191.788 10.528 192.644 9.472 193.668 8.624C194.692 7.76 195.708 7.328 196.716 7.328C197.74 7.328 198.684 7.832 199.548 8.84C200.412 9.832 200.844 10.824 200.844 11.816ZM198.06 11.432C198.06 11.272 197.892 11.04 197.556 10.736C197.22 10.432 196.9 10.28 196.596 10.28C196.308 10.28 195.932 10.496 195.468 10.928C195.004 11.344 194.564 11.888 194.148 12.56C194.292 12.576 194.5 12.584 194.772 12.584C196.964 12.584 198.06 12.2 198.06 11.432ZM203.131 11.384L202.987 8.672C202.987 7.776 203.267 7.328 203.827 7.328C204.147 7.328 204.459 7.448 204.763 7.688C205.083 7.928 205.323 8.304 205.483 8.816C206.027 8.336 206.619 7.952 207.259 7.664C207.915 7.36 208.491 7.208 208.987 7.208C210.155 7.208 210.739 7.488 210.739 8.048C210.739 8.336 210.683 8.552 210.571 8.696C210.475 8.824 210.395 8.92 210.331 8.984C210.283 9.048 210.187 9.136 210.043 9.248C209.915 9.344 209.819 9.416 209.755 9.464C209.387 9.704 209.123 9.872 208.963 9.968C208.243 10.416 207.627 10.96 207.115 11.6C206.603 12.224 206.219 13.096 205.963 14.216C205.531 16.056 205.107 17.432 204.691 18.344C204.291 19.24 203.835 19.688 203.323 19.688C202.827 19.688 202.451 19.448 202.195 18.968C201.955 18.488 201.835 18.04 201.835 17.624C201.835 17.192 201.987 16.552 202.291 15.704C202.611 14.856 202.827 14.128 202.939 13.52C203.067 12.896 203.131 12.184 203.131 11.384ZM221.258 11.816C221.258 12.6 220.722 13.304 219.65 13.928C218.594 14.552 217.506 14.864 216.386 14.864C215.266 14.864 214.346 14.784 213.626 14.624C213.482 15.056 213.41 15.488 213.41 15.92C213.41 16.352 213.482 16.664 213.626 16.856C213.77 17.032 214.13 17.12 214.706 17.12C215.906 17.12 216.93 17.008 217.778 16.784C218.642 16.56 219.09 16.448 219.122 16.448C219.778 16.448 220.106 16.664 220.106 17.096C220.106 17.72 219.586 18.312 218.546 18.872C217.522 19.432 216.33 19.712 214.97 19.712C213.626 19.712 212.546 19.288 211.73 18.44C210.914 17.592 210.506 16.592 210.506 15.44C210.506 14.272 210.842 13.056 211.514 11.792C212.202 10.528 213.058 9.472 214.082 8.624C215.106 7.76 216.122 7.328 217.13 7.328C218.154 7.328 219.098 7.832 219.962 8.84C220.826 9.832 221.258 10.824 221.258 11.816ZM218.474 11.432C218.474 11.272 218.306 11.04 217.97 10.736C217.634 10.432 217.314 10.28 217.01 10.28C216.722 10.28 216.346 10.496 215.882 10.928C215.418 11.344 214.978 11.888 214.562 12.56C214.706 12.576 214.914 12.584 215.186 12.584C217.378 12.584 218.474 12.2 218.474 11.432ZM232.473 0.607999C232.857 0.607999 233.361 0.959999 233.985 1.664C234.609 2.352 234.921 3 234.921 3.608C234.921 3.912 234.641 5.176 234.081 7.4C233.521 9.624 233.185 10.968 233.073 11.432C231.793 16.952 230.857 19.712 230.265 19.712C229.929 19.712 229.553 19.512 229.137 19.112C228.721 18.712 228.513 18.32 228.513 17.936C228.513 17.856 228.521 17.792 228.537 17.744C226.937 19.056 225.785 19.712 225.081 19.712C224.393 19.712 223.721 19.344 223.065 18.608C222.425 17.856 222.105 17.176 222.105 16.568C222.105 15.96 222.185 15.288 222.345 14.552C222.521 13.8 222.785 13.008 223.137 12.176C223.489 11.344 223.889 10.568 224.337 9.848C224.801 9.112 225.353 8.512 225.993 8.048C226.649 7.568 227.321 7.328 228.009 7.328C229.033 7.328 229.873 7.848 230.529 8.888C231.393 5.096 231.809 2.576 231.777 1.328C231.777 0.847999 232.009 0.607999 232.473 0.607999ZM225.393 16.664C225.793 16.664 226.465 16.32 227.409 15.632C228.369 14.944 229.081 14.072 229.545 13.016C229.529 12.888 229.521 12.608 229.521 12.176C229.521 11.744 229.377 11.336 229.089 10.952C228.801 10.568 228.537 10.376 228.297 10.376C227.817 10.376 227.353 10.632 226.905 11.144C226.473 11.656 226.129 12.264 225.873 12.968C225.329 14.456 225.057 15.584 225.057 16.352C225.057 16.48 225.073 16.568 225.105 16.616C225.153 16.648 225.249 16.664 225.393 16.664ZM238.547 17.264C239.411 16.88 240.163 16.104 240.803 14.936C241.443 13.768 241.763 12.672 241.763 11.648C241.763 10.624 241.619 9.92 241.331 9.536C240.643 9.936 239.955 10.776 239.267 12.056C238.595 13.336 238.259 14.464 238.259 15.44C238.259 16.4 238.355 17.008 238.547 17.264ZM235.043 15.68C235.043 13.68 235.659 11.784 236.891 9.992C238.139 8.2 239.371 7.304 240.587 7.304C241.803 7.304 242.827 7.736 243.659 8.6C244.491 9.448 244.907 10.48 244.907 11.696C244.907 12.896 244.619 14.12 244.043 15.368C243.467 16.616 242.659 17.656 241.618 18.488C240.579 19.304 239.467 19.712 238.283 19.712C237.403 19.712 236.643 19.32 236.003 18.536C235.363 17.752 235.043 16.8 235.043 15.68ZM254.508 7.328C254.924 7.328 255.324 7.48 255.708 7.784C256.108 8.072 256.308 8.376 256.308 8.696C256.308 9.272 255.828 10.608 254.868 12.704C253.924 14.8 253.044 16.488 252.228 17.768C251.428 19.048 250.804 19.688 250.356 19.688C250.116 19.688 249.764 19.528 249.3 19.208C248.852 18.888 248.564 18.568 248.436 18.248C248.052 17.32 247.588 15.608 247.044 13.112C246.5 10.6 246.228 9.008 246.228 8.336C246.228 7.664 246.452 7.328 246.9 7.328C247.444 7.328 248.004 7.544 248.58 7.976C249.54 8.712 250.076 9.696 250.188 10.928C250.236 11.504 250.276 12.216 250.308 13.064C250.34 13.896 250.412 14.616 250.524 15.224C250.908 14.488 251.38 13.4 251.94 11.96C252.5 10.504 252.98 9.368 253.38 8.552C253.796 7.736 254.172 7.328 254.508 7.328Z" fill="#F8FF21"/>
</svg>
